<?xml version="1.0" encoding="UTF-8"?><svg id="Layer_1" xmlns="http://www.w3.org/2000/svg" viewBox="0 0 1401.92 752.48"><defs><style>.cls-1{opacity:.35;}.cls-1,.cls-2{fill:#fff;stroke-width:0px;}</style></defs><path class="cls-1" d="m803.92,310.54h-46.11v65.48h30.61v-.22h49.47v-20.87h-4.89c-17.52,0-31.72-14.2-31.72-31.72,0-4.51.95-8.78,2.64-12.66m-440.65,6.44h-55.68v59.05h144.6c-11.99-38.3-44.98-59.05-88.93-59.05m301.7-170.61c0,4.76-3.85,8.61-8.62,8.61-4.75,0-8.61-3.86-8.61-8.61s3.85-8.61,8.62-8.61,8.6,3.86,8.61,8.62m-8.61-50.27c4.76,0,8.61,3.86,8.61,8.61,0,4.76-3.85,8.61-8.61,8.62-4.76,0-8.61-3.86-8.61-8.62s3.85-8.61,8.61-8.61m8.61-33.03c0,4.76-3.85,8.61-8.61,8.62-4.76,0-8.61-3.86-8.61-8.62,0-4.76,3.85-8.61,8.61-8.62,4.76,0,8.61,3.86,8.61,8.62m-17.22,124.94c0-4.76,3.86-8.61,8.61-8.61,4.76,0,8.61,3.86,8.61,8.62,0,4.76-3.85,8.61-8.61,8.61-4.76,0-8.61-3.86-8.61-8.61m185.26,16.41h4.89v-28.32h-4.89c-17.52,0-31.72-14.2-31.72-31.72s14.2-31.72,31.72-31.72h4.89v-28.32h-4.89c-17.52,0-31.72-14.2-31.72-31.72s14.2-31.72,31.72-31.72h4.89V0h-149.79c0,18.1-14.68,32.78-32.78,32.78-18.1,0-32.78-14.68-32.78-32.78H218.84v.25c-13.56.01-27.12.02-40.67.06-11.02.03-22.06,1.12-33.04,2.26-33.16,3.44-64.96,11.58-93.68,29.14C27.81,46.16,11.03,65.98,3.56,93.31-1.14,110.51.6,127.88.13,145.22c.25.22.52.43.78.64,1.08.89,2.18,1.76,3.15,2.76.03.03.06.05.08.08,8.73,9.28,18.42,16.97,28.78,23.49,14.15,8.9,29.62,15.54,46.04,20.46,12.2,3.66,24.58,6.31,37.05,8.31,9.6,1.53,19.24,2.67,28.93,3.41l.24.14c0,19.64,15.92,35.57,35.57,35.57s35.57-15.92,35.57-35.57h125.43c3.38,0,6.73.08,10.05.17v1.25c118.57,3.38,202.93,66.58,217.83,170.08h50.67v-171.51h196.43c4.02,0,7.98.09,11.9.24,1.43-.2,2.88-.34,4.37-.34"/><path class="cls-2" d="m1384.84,122.12l7.24-6.59c7.38-6.66,8.69-11.15,8.69-16.14,0-9.63-8.47-15.85-20.48-15.85-10.93,0-18.24,4.78-21.93,11.73l12.88,6.44c1.52-3.04,4.42-4.7,7.46-4.7,3.26,0,4.92,1.52,4.92,3.98,0,1.74-.51,3.69-3.98,6.95l-18.31,16.94v10.5h40.61v-13.25h-17.08Zm-73.54-37.42v12.88h8.69v37.78h17.08v-50.67h-25.77Zm-42.78,38.15c-3.33,0-5.79-3.04-5.79-12.81s2.46-12.81,5.79-12.81,5.79,3.04,5.79,12.81-2.46,12.81-5.79,12.81m0,13.68c13.39,0,22.95-9.7,22.95-26.49s-9.55-26.49-22.95-26.49-22.95,9.7-22.95,26.49,9.55,26.49,22.95,26.49m-61.6-14.4l7.24-6.59c7.38-6.66,8.69-11.15,8.69-16.14,0-9.63-8.47-15.85-20.48-15.85-10.93,0-18.24,4.78-21.93,11.73l12.88,6.44c1.52-3.04,4.42-4.7,7.46-4.7,3.26,0,4.92,1.52,4.92,3.98,0,1.74-.51,3.69-3.98,6.95l-18.31,16.94v10.5h40.61v-13.25h-17.08Zm-94.46,13.97c5.43,0,9.55-3.91,9.55-9.41s-4.13-9.27-9.55-9.27-9.55,3.69-9.55,9.27,4.13,9.41,9.55,9.41m-58.78-.72h17.08v-37.42h14.84v-13.25h-46.76v13.25h14.84v37.42Zm-57.04,1.16c15.71,0,23.6-7.82,23.6-17.08,0-18.68-28.01-13.61-28.01-19.69,0-1.74,1.59-3.18,6.59-3.18,4.42,0,9.12,1.23,14.12,3.76l5.14-12.38c-5.28-2.97-12.31-4.42-19.11-4.42-15.71,0-23.6,7.67-23.6,17.08,0,18.89,28.01,13.75,28.01,20.12,0,1.74-1.74,2.75-6.59,2.75-5.57,0-11.94-1.81-16.72-4.63l-5.5,12.45c5.07,3.11,13.61,5.21,22.08,5.21m-68.91-14.04v-6.66h21.43v-12.31h-21.43v-5.94h24.39v-12.88h-41.19v50.67h42.13v-12.88h-25.33Z"/><path class="cls-2" d="m457.19,410.33c0,60.18-38.24,93.36-93.92,93.36h-55.68v-186.71h55.68c55.68,0,93.92,33.18,93.92,93.36m-265.98-47.01c0,5.16-4.18,9.34-9.35,9.34-5.16,0-9.34-4.19-9.34-9.35,0-5.16,4.18-9.34,9.35-9.34s9.34,4.18,9.34,9.35m-9.34-54.55c5.16,0,9.34,4.19,9.34,9.35,0,5.16-4.18,9.35-9.35,9.35-5.16,0-9.34-4.19-9.34-9.35s4.18-9.35,9.34-9.35m9.34-35.84c0,5.16-4.18,9.34-9.34,9.35-5.16,0-9.34-4.19-9.34-9.35,0-5.16,4.18-9.35,9.34-9.35,5.16,0,9.34,4.19,9.34,9.35m-18.69,135.57c0-5.16,4.18-9.34,9.35-9.34,5.16,0,9.34,4.18,9.34,9.35,0,5.16-4.18,9.35-9.35,9.35-5.16,0-9.34-4.19-9.34-9.35m9.35,54.54c-5.16,0-9.34-4.19-9.34-9.35,0-5.16,4.18-9.35,9.35-9.35s9.34,4.19,9.34,9.35-4.18,9.35-9.34,9.35m-9.34,35.84c0-5.16,4.18-9.34,9.34-9.35,5.16,0,9.34,4.19,9.34,9.35s-4.18,9.35-9.35,9.35c-5.16,0-9.34-4.19-9.34-9.35m0,45.19c0-5.16,4.18-9.35,9.34-9.35,5.16,0,9.34,4.19,9.34,9.35,0,5.16-4.18,9.34-9.35,9.35-5.16,0-9.34-4.19-9.34-9.35m399.47-134.33c0-123.38-89.23-200.09-220.19-203.82v-1.25c-3.33-.1-6.67-.17-10.05-.17h-125.43c0,19.64-15.92,35.57-35.57,35.57s-35.57-15.92-35.57-35.57l-.24-.14c-9.69-.74-19.34-1.88-28.93-3.41-12.47-1.99-24.84-4.65-37.05-8.31-28.45-8.53-54.17-22-74.82-43.95-1.21-1.28-2.67-2.33-4.01-3.48-.04,1.58-.13,3.17-.13,4.75.1,125.46.23,250.91.22,376.37,0,5.25,1.08,9.7,4.48,13.64,3.22,3.74,6.16,7.75,9.63,11.23,21.72,21.83,49.1,33.71,77.89,42.26,7.81,2.32,15.78,4.13,23.8,5.77,9.36,1.92,18.79,3.62,28.15,5.52.6.12,1.21.2,1.81.32,3.42-16.08,17.68-28.14,34.78-28.14,19.64,0,35.57,15.92,35.57,35.56h.74l124.69,1.25c136.44,0,230.25-77.48,230.25-204m291.99-51.38c0,29.75-18.08,47.84-56,47.84h-50.17v-95.68h50.17c37.92,0,56,18.09,56,47.84m147.42,254.14l-85.66-125.91c48.94-25.05,76.91-69.33,76.91-128.23,0-94.45-72.25-153.87-185.93-153.87h-196.43v408.01h137.51v-102.6h37.33l69.42,102.6h146.84Zm390.52-301.4v-106.61h-376.53v106.61h119.51v301.4h137.51v-301.4h119.51Z"/><path class="cls-2" d="m1401.92,751.11l-21.99-30.85,20.71-28.81h-21.65l-9.89,15-10.14-15h-22.58l20.8,29.57-21.56,30.09h22.93l10.06-15.94,10.31,15.94h23.01Zm-111.91,0h20.11v-59.66h-20.11v59.66Zm-64.09,0h20.11v-44.06h17.47v-15.6h-55.06v15.6h17.47v44.06Zm-118.72-15.17v-7.84h25.23v-14.49h-25.23v-6.99h28.72v-15.17h-48.49v59.66h49.6v-15.17h-29.83Zm-73.64,16.54c11.68,0,20.88-4.26,26.76-11.93l-12.7-11.34c-3.5,4.43-7.67,6.99-13.04,6.99-8.35,0-13.98-5.8-13.98-14.91s5.62-14.92,13.98-14.92c5.37,0,9.55,2.56,13.04,6.99l12.7-11.34c-5.88-7.67-15.08-11.93-26.76-11.93-19.18,0-33.24,12.87-33.24,31.19s14.06,31.19,33.24,31.19m-81.48-61.03v27.1l-22.67-27.1h-16.54v59.66h19.6v-27.1l22.67,27.1h16.54v-59.66h-19.6Zm-105.69,34.77l5.8-15,5.79,15h-11.59Zm21.14,24.89h20.8l-26.08-59.66h-19.77l-26.08,59.66h20.46l4.01-10.4h22.67l4,10.4Zm-75.68,0l-.17-59.66h-16.54l-18.92,31.79-19.43-31.79h-16.54v59.66h18.33v-26.25l12.95,20.88h8.87l12.95-21.82.17,27.19h18.33Zm-120.77-37.16c0,4.35-2.64,6.99-8.18,6.99h-7.33v-13.98h7.33c5.54,0,8.18,2.64,8.18,6.99m.08,37.16h21.48l-12.53-18.41c7.16-3.67,11.25-10.14,11.25-18.75,0-13.81-10.57-22.5-27.19-22.5h-28.72v59.66h20.11v-15h5.45l10.14,15Zm-98.01-14.91c-7.41,0-13.38-5.62-13.38-14.91s5.97-14.92,13.38-14.92,13.38,5.63,13.38,14.92-5.97,14.91-13.38,14.91m0,16.28c19.43,0,33.67-13.13,33.67-31.19s-14.23-31.19-33.67-31.19-33.67,13.12-33.67,31.19,14.23,31.19,33.67,31.19m-58.55-45.85v-15.17h-48.5v59.66h20.12v-19.09h24.89v-15.17h-24.89v-10.23h28.38Zm-97.68,7.33c0,4.35-2.64,6.99-8.18,6.99h-7.33v-13.98h7.33c5.54,0,8.18,2.64,8.18,6.99m.08,37.16h21.48l-12.53-18.41c7.16-3.67,11.25-10.14,11.25-18.75,0-13.81-10.57-22.5-27.19-22.5h-28.72v59.66h20.11v-15h5.46l10.14,15Zm-94.6-15.17v-7.84h25.23v-14.49h-25.23v-6.99h28.72v-15.17h-48.49v59.66h49.61v-15.17h-29.83Zm-76.11-15h-7.33v-13.98h7.33c5.54,0,8.18,2.64,8.18,6.99s-2.64,6.99-8.18,6.99m1.28-29.49h-28.72v59.66h20.12v-14.66h8.61c16.62,0,27.19-8.69,27.19-22.5s-10.57-22.5-27.19-22.5"/></svg>